<svg xmlns="http://www.w3.org/2000/svg" version="1.1" xmlns:xlink="http://www.w3.org/1999/xlink" xmlns:svgjs="http://svgjs.dev/svgjs" width="1000" height="1000"><g clip-path="url(#SvgjsClipPath2513)"><rect width="1000" height="1000" fill="#9cdb9d"></rect><g transform="matrix(12.5,0,0,12.5,0,0)"><svg xmlns="http://www.w3.org/2000/svg" version="1.1" xmlns:xlink="http://www.w3.org/1999/xlink" xmlns:svgjs="http://svgjs.dev/svgjs" width="80" height="80"><svg xmlns="http://www.w3.org/2000/svg" fill="none" width="80" height="80" viewBox="0 0 24 24">
  <circle cx="12" cy="12" r="10" fill="#9cdb9d"></circle>
  <path fill="#000000" d="M8.53 13.47c.29.29.29.77 0 1.06-.15.15-.34.22-.53.22s-.38-.07-.53-.22l-2-2a.754.754 0 0 1 0-1.06l2-2c.29-.29.77-.29 1.06 0 .29.29.29.77 0 1.06L7.06 12l1.47 1.47Zm5.16-3.51-2 4.67a.752.752 0 0 1-.98.39.745.745 0 0 1-.39-.99l2-4.67c.16-.38.6-.56.98-.39.38.17.55.61.39.99Zm4.84 2.57-2 2c-.15.15-.34.22-.53.22s-.38-.07-.53-.22a.754.754 0 0 1 0-1.06L16.94 12l-1.47-1.47a.754.754 0 0 1 0-1.06c.29-.29.77-.29 1.06 0l2 2c.29.29.29.77 0 1.06Z"></path>
</svg></svg></g></g><defs><clipPath id="SvgjsClipPath2513"><rect width="1000" height="1000" x="0" y="0" rx="500" ry="500"></rect></clipPath></defs></svg>