<?xml version="1.0" encoding="utf-8"?>
<!-- Generator: Adobe Illustrator 27.0.1, SVG Export Plug-In . SVG Version: 6.00 Build 0)  -->
<svg version="1.1" id="Слой_1" xmlns="http://www.w3.org/2000/svg" xmlns:xlink="http://www.w3.org/1999/xlink" x="0px" y="0px"
	 viewBox="0 0 496 512" style="enable-background:new 0 0 496 512;" xml:space="preserve">
<path d="M395.6,331.9c2,0,3.6,2.3,3.6,5.2c0.3,3.3-1.3,5.6-3.6,5.6c-2,0-3.6-2.3-3.6-5.2C391.7,334.5,393.3,331.9,395.6,331.9z
	 M391.1,363c2,0.7,4.3-1.3,4.9-4.3c1-2.6,0-5.6-2-6.2c-2-0.6-4.3,1.3-5.2,4.3C388.1,359.4,389.1,362.3,391.1,363L391.1,363z
	 M389.4,318.8c0.7,2.9,2.6,4.9,4.9,4.6c2-0.3,3.3-2.9,2.6-5.9c-0.7-2.9-2.6-4.9-4.6-4.6C390.4,313.2,389.1,315.9,389.4,318.8z
	 M6.2,253c0,138.7,105.3,244.8,244,244.8c110.9,0,205.8-69.8,239.2-169.5c2.3-12.8-5.6-17.3-12.1-17.3c-6.2,0-40.4,0.3-61.4,0.3
	c0,0,15,70-29.8,84.7c0,0-29.1,11.4-36.6,27.8c0,0-15.7,22.9-15.4-1.6c0,0,2-24.9,25.8-38.6c38.6-21.9,27.5-58.6,20.9-72.9
	c-16-2.3-27.1-8.8-33.7-16C340.9,350.6,332.8,407,236.6,407c-27.5,0-41.3-7.6-58.9-23.6c-6.5,2.6-33.3,11.1-67.9-2.6
	c-6.5-20.9,27-69,27-69c-5.6-20-8.5-41.5-8.5-62.8s2.9-42.8,8.5-62.8c0,0-33.6-48.1-27-69c34.7-13.7,61.4-5.2,67.9-2.6
	c17.7-16,31.5-25.8,58.9-25.8c96.5,0,104.2,58.9,110.5,114.8c7.9-9.2,22.9-17,46.4-17c33.7,0,75.4,0.3,83.6,0.3
	c6.5,0,14.4-4.6,12.1-17.3C456,69.6,361.1,1.8,250.2,1.8C111.5,1.8,6.2,114.3,6.2,253z M351.1,400.6c1,1.3,3.3,1,5.2-0.7
	c1.6-1.6,2.3-3.9,1-5.2c-1-1.3-3.3-1-5.2,0.7C350.5,397,349.8,399.3,351.1,400.6z M343,411.4c1.3,0.7,2.9-0.3,3.9-2.3
	c1-1.6,0.7-3.6-0.7-4.3c-1.3-0.7-2.9,0.3-3.9,2.3C341.7,409.1,342,410.7,343,411.4z M378.6,379c1.3,1.6,4.3,1,6.2-1.3
	c2.3-2.3,2.6-5.2,1-6.5c-1.3-1.3-4.3-0.7-6.2,1.3C377.3,374.7,377,377.7,378.6,379z M363.9,390.4c1,1.6,3.6,1.6,5.9,0
	c2.3-1.6,3.3-4.3,2.3-5.6c-1.3-1.6-3.9-1.6-6.2,0C363.6,386.2,362.6,388.8,363.9,390.4L363.9,390.4z"/>
</svg>
