<?xml version="1.0" encoding="utf-8"?>
<!-- Generator: Adobe Illustrator 27.0.1, SVG Export Plug-In . SVG Version: 6.00 Build 0)  -->
<svg version="1.1" id="Слой_1" xmlns="http://www.w3.org/2000/svg" xmlns:xlink="http://www.w3.org/1999/xlink" x="0px" y="0px"
	 viewBox="0 0 448 512" style="enable-background:new 0 0 448 512;" xml:space="preserve">
<path d="M0,64v384.1C0,465.7,14.5,480,32.3,480h383.4c17.8,0,32.3-14.3,32.3-31.9V64c0-17.6-14.5-32-32.3-32H32.3
	C14.5,32,0,46.4,0,64z M384,344.6V411H170.2v-66.5H384V344.6z M141,377.8c0,21.3-17.3,38.5-38.5,38.5S64,399.1,64,377.8
	c0-21.2,17.3-38.5,38.5-38.5C123.8,339.3,141,356.5,141,377.8z M384,95.7v66.4H280c-24.8,0-56.7,0.5-56.7,34.5
	c0,34.6,27,39.9,54.9,39.9H384v66.4H170.2v-63.7h29.2v-0.9c-16.8-8.9-34.5-30.6-34.5-62.9c0-67.2,44.3-79.7,101.9-79.7H384z"/>
</svg>
