<svg xmlns="http://www.w3.org/2000/svg" width="80" height="80" viewBox="0 0 36 36">
  <path d="m18 14.87 5.11-5.14a1 1 0 1 0-1.42-1.41L19 11V3.33a1 1 0 0 0-2 0V11l-2.69-2.68a1 1 0 1 0-1.42 1.41Z" fill="#0077C8"/>
  <path d="m18 21.13-5.11 5.14a1 1 0 0 0 1.42 1.41L17 25v7.69a1 1 0 0 0 2 0V25l2.69 2.71a1 1 0 0 0 1.42-1.41Z" fill="#FF3F34"/>
  <path d="M28.85 12.89a1 1 0 0 0-1.41 1.42L30.15 17h-7.69a1 1 0 1 0 0 2h7.69l-2.71 2.69a1 1 0 0 0 1.41 1.42L34 18Z" fill="#0077C8"/>
  <path d="M5.85 19h7.69a1 1 0 0 0 0-2H5.85l2.71-2.69a1 1 0 1 0-1.41-1.42L2 18l5.14 5.11a1 1 0 1 0 1.41-1.42Z" fill="#FF3F34"/>
  <path fill="none" d="M0 0h36v36H0z"/>
</svg>